<?xml version="1.0" standalone="no"?>
<!DOCTYPE svg PUBLIC "-//W3C//DTD SVG 20010904//EN"
 "http://www.w3.org/TR/2001/REC-SVG-20010904/DTD/svg10.dtd">
<svg version="1.0" xmlns="http://www.w3.org/2000/svg"
 width="700.000000pt" height="700.000000pt" viewBox="0 0 700.000000 700.000000"
 preserveAspectRatio="xMidYMid meet">
<metadata>
Created by potrace 1.14, written by Peter Selinger 2001-2017
</metadata>
<g transform="translate(0.000000,700.000000) scale(0.100000,-0.100000)"
fill="#000000" stroke="none">
<path d="M1170 6503 c-38 -3 -98 -12 -180 -28 -36 -7 -147 -48 -194 -72 -236
-119 -408 -329 -478 -584 l-23 -84 0 -2300 0 -2300 23 -84 c24 -92 77 -210
125 -280 51 -74 163 -186 240 -238 120 -82 227 -125 397 -159 49 -9 4719 -11
4805 -2 158 18 278 61 410 147 209 137 342 328 396 570 18 83 18 163 16 2361
-1 1251 -6 2291 -11 2310 -31 137 -68 225 -141 336 -146 219 -407 375 -668
400 -65 6 -4610 12 -4717 7z m580 -986 l0 -403 -437 1 -438 0 0 259 c0 177 4
274 12 308 19 75 63 132 138 181 75 49 125 56 438 56 l287 1 0 -403z m2916
-692 c0 -602 -2 -1095 -6 -1096 -15 -3 -2306 -4 -2316 -2 -7 3 -10 340 -8
1096 0 601 2 1093 3 1095 0 1 524 2 1164 2 l1163 0 0 -1095z m1264 1063 c79
-39 134 -93 166 -163 l28 -60 1 -272 c0 -150 -2 -274 -5 -274 -3 -1 -200 -2
-437 -3 l-433 -2 0 404 0 404 313 -4 312 -3 55 -27z m-4180 -1758 c0 -220 -3
-400 -7 -401 -5 -1 -199 -2 -431 -3 -273 0 -426 3 -430 9 -4 6 -7 187 -7 403
l0 392 437 0 438 0 0 -400z m4375 0 c0 -220 -2 -400 -5 -401 -18 -3 -847 -4
-857 -1 -10 3 -13 93 -13 403 l0 399 438 0 437 0 0 -400z m-4382 -989 c4 -1 7
-182 7 -403 l0 -403 -437 1 -438 1 -1 394 c0 217 3 399 7 404 5 6 158 9 431 8
232 -1 426 -2 431 -2z m2897 0 l26 -1 0 -1095 0 -1095 -1166 0 -1166 0 0 1095
0 1094 40 3 c33 2 2169 1 2266 -1z m1480 0 c3 -1 5 -181 5 -401 0 -349 -2
-400 -15 -401 -8 0 -205 -1 -437 -2 l-423 -2 0 402 c0 258 4 403 10 405 8 2
839 1 860 -1z m-4372 -1790 l2 -402 -312 3 -313 3 -58 27 c-84 40 -152 113
-175 191 -16 54 -18 94 -16 317 1 140 2 257 3 260 0 3 196 5 434 5 l432 -1 3
-403z m4367 397 c16 -10 12 -522 -5 -575 -22 -72 -90 -147 -167 -185 l-68 -33
-312 -3 -313 -3 0 399 c0 219 2 401 4 403 7 7 850 4 861 -3z"/>
</g>
</svg>
