<svg version="1.0" xmlns="http://www.w3.org/2000/svg" width="933.333" height="933.333" viewBox="0 0 700 700"><path d="M117 49.7c-3.8.3-9.8 1.2-18 2.8-3.6.7-14.7 4.8-19.4 7.2C56 71.6 38.8 92.6 31.8 118.1l-2.3 8.4v460l2.3 8.4c2.4 9.2 7.7 21 12.5 28 5.1 7.4 16.3 18.6 24 23.8 12 8.2 22.7 12.5 39.7 15.9 4.9.9 471.9 1.1 480.5.2 15.8-1.8 27.8-6.1 41-14.7 20.9-13.7 34.2-32.8 39.6-57 1.8-8.3 1.8-16.3 1.6-236.1-.1-125.1-.6-229.1-1.1-231-3.1-13.7-6.8-22.5-14.1-33.6-14.6-21.9-40.7-37.5-66.8-40-6.5-.6-461-1.2-471.7-.7zm58 98.6v40.3l-43.7-.1H87.5v-25.9c0-17.7.4-27.4 1.2-30.8 1.9-7.5 6.3-13.2 13.8-18.1 7.5-4.9 12.5-5.6 43.8-5.6l28.7-.1v40.3zm291.6 69.2c0 60.2-.2 109.5-.6 109.6-1.5.3-230.6.4-231.6.2-.7-.3-1-34-.8-109.6 0-60.1.2-109.3.3-109.5 0-.1 52.4-.2 116.4-.2h116.3v109.5zM593 111.2c7.9 3.9 13.4 9.3 16.6 16.3l2.8 6 .1 27.2c0 15-.2 27.4-.5 27.4-.3.1-20 .2-43.7.3l-43.3.2v-80.8l31.3.4 31.2.3 5.5 2.7zM175 287c0 22-.3 40-.7 40.1-.5.1-19.9.2-43.1.3-27.3 0-42.6-.3-43-.9-.4-.6-.7-18.7-.7-40.3V247H175v40zm437.5 0c0 22-.2 40-.5 40.1-1.8.3-84.7.4-85.7.1-1-.3-1.3-9.3-1.3-40.3V247h87.5v40zm-438.2 98.9c.4.1.7 18.2.7 40.3v40.3l-43.7-.1-43.8-.1-.1-39.4c0-21.7.3-39.9.7-40.4.5-.6 15.8-.9 43.1-.8 23.2.1 42.6.2 43.1.2zm289.7 0 2.6.1v219H233.4V386.1l4-.3c3.3-.2 216.9-.1 226.6.1zm148 0c.3.1.5 18.1.5 40.1 0 34.9-.2 40-1.5 40.1-.8 0-20.5.1-43.7.2l-42.3.2v-40.2c0-25.8.4-40.3 1-40.5.8-.2 83.9-.1 86 .1zm-437.2 179 .2 40.2-31.2-.3-31.3-.3-5.8-2.7c-8.4-4-15.2-11.3-17.5-19.1-1.6-5.4-1.8-9.4-1.6-31.7.1-14 .2-25.7.3-26 0-.3 19.6-.5 43.4-.5l43.2.1.3 40.3zm436.7-39.7c1.6 1 1.2 52.2-.5 57.5-2.2 7.2-9 14.7-16.7 18.5l-6.8 3.3-31.2.3-31.3.3v-39.9c0-21.9.2-40.1.4-40.3.7-.7 85-.4 86.1.3z"/></svg>